<svg width="46" height="45" viewBox="0 0 46 45" fill="none" xmlns="http://www.w3.org/2000/svg">
<ellipse cx="22.9984" cy="22.5" rx="22.9984" ry="22.5" fill="#365486"/>
<path d="M26.9997 14.3107C26.9997 12.2548 25.3775 10.5883 23.3764 10.5883C21.3752 10.5883 19.753 12.2548 19.753 14.3107C19.753 16.3665 21.3752 18.0331 23.3764 18.0331C25.3775 18.0331 26.9997 16.3665 26.9997 14.3107ZM22.5305 19.937C20.2912 18.5287 16.6641 18.1417 14.8389 18.035C14.2255 17.9994 13.7141 18.4794 13.7141 19.0855V27.7246C13.7141 28.2803 14.1516 28.7436 14.7139 28.7735C16.3618 28.8623 19.6956 29.1876 21.9999 30.3799C22.3535 30.563 22.7728 30.3136 22.7728 29.9197V20.3813C22.7725 20.2003 22.6853 20.0343 22.5305 19.937ZM31.9139 18.035C30.089 18.1413 26.4615 18.5287 24.2226 19.937C24.0678 20.0343 23.9806 20.2069 23.9806 20.3879V29.9185C23.9806 30.3136 24.4011 30.5633 24.7559 30.3799C27.0597 29.1888 30.3917 28.8634 32.0392 28.7746C32.6015 28.7444 33.039 28.281 33.039 27.7254V19.0855C33.0386 18.4794 32.5272 17.9994 31.9139 18.035Z" fill="white"/>
</svg>
