<svg width="24" height="24" viewBox="0 0 24 24" fill="none" xmlns="http://www.w3.org/2000/svg">
<path d="M9.75001 16.5H7.50001V2.25C7.50001 2.05109 7.42099 1.86032 7.28034 1.71967C7.13969 1.57902 6.94892 1.5 6.75001 1.5H5.25001C5.0511 1.5 4.86033 1.57902 4.71968 1.71967C4.57903 1.86032 4.50001 2.05109 4.50001 2.25V16.5H2.25001C1.58485 16.5 1.24876 17.3081 1.72079 17.7802L5.47079 22.2802C5.61143 22.4207 5.80212 22.4997 6.00095 22.4997C6.19978 22.4997 6.39047 22.4207 6.5311 22.2802L10.2811 17.7802C10.7508 17.3091 10.4166 16.5 9.75001 16.5ZM21 13.5H15C14.8011 13.5 14.6103 13.579 14.4697 13.7197C14.329 13.8603 14.25 14.0511 14.25 14.25V15.75C14.25 15.9489 14.329 16.1397 14.4697 16.2803C14.6103 16.421 14.8011 16.5 15 16.5H17.625L14.7534 19.8023C14.5951 19.9431 14.4684 20.1158 14.3816 20.309C14.2948 20.5023 14.25 20.7117 14.25 20.9236V21.75C14.25 21.9489 14.329 22.1397 14.4697 22.2803C14.6103 22.421 14.8011 22.5 15 22.5H21C21.1989 22.5 21.3897 22.421 21.5303 22.2803C21.671 22.1397 21.75 21.9489 21.75 21.75V20.25C21.75 20.0511 21.671 19.8603 21.5303 19.7197C21.3897 19.579 21.1989 19.5 21 19.5H18.375L21.2466 16.1977C21.4049 16.0569 21.5316 15.8842 21.6184 15.691C21.7052 15.4977 21.75 15.2883 21.75 15.0764V14.25C21.75 14.0511 21.671 13.8603 21.5303 13.7197C21.3897 13.579 21.1989 13.5 21 13.5ZM22.4559 9.49781L19.6777 1.99781C19.6256 1.85211 19.5298 1.72606 19.4034 1.63694C19.2769 1.54781 19.126 1.49998 18.9713 1.5H17.0288C16.874 1.49998 16.7231 1.54781 16.5967 1.63694C16.4702 1.72606 16.3744 1.85211 16.3224 1.99781L13.5441 9.49781C13.5037 9.61096 13.491 9.73217 13.5073 9.85122C13.5235 9.97027 13.5681 10.0837 13.6372 10.1819C13.7064 10.2801 13.7982 10.3603 13.9049 10.4157C14.0115 10.471 14.1299 10.4999 14.25 10.5H15.4139C15.5725 10.5001 15.7271 10.4498 15.8554 10.3565C15.9837 10.2632 16.079 10.1316 16.1278 9.98063L16.335 9.375H19.6631L19.8699 9.98063C19.9187 10.1319 20.0144 10.2637 20.143 10.357C20.2717 10.4504 20.4267 10.5004 20.5856 10.5H21.75C21.8702 10.4999 21.9885 10.471 22.0952 10.4157C22.2018 10.3603 22.2936 10.2801 22.3628 10.1819C22.432 10.0837 22.4765 9.97027 22.4928 9.85122C22.509 9.73217 22.4963 9.61096 22.4559 9.49781ZM17.2317 6.75L18 4.5L18.7683 6.75H17.2317Z" fill="#070F2B"/>
</svg>
